<mxfile host="app.diagrams.net" modified="2025-06-13T00:00:00.000Z" agent="5.0" etag="UMLSequenceDiagram-ReturnResource" version="24.7.17">
  <diagram name="Return Resource Sequence" id="return-sequence">
    <mxGraphModel dx="1422" dy="794" grid="1" gridSize="10" guides="1" tooltips="1" connect="1" arrows="1" fold="1" page="1" pageScale="1" pageWidth="1654" pageHeight="1169" math="0" shadow="0">
      <root>
        <mxCell id="0" />
        <mxCell id="1" parent="0" />
        
        <!-- Actors/Objects -->
        <mxCell id="librarian-actor" value="Librarian" style="shape=umlActor;verticalLabelPosition=bottom;verticalAlign=top;html=1;outlineConnect=0;fillColor=#dae8fc;strokeColor=#6c8ebf;" vertex="1" parent="1">
          <mxGeometry x="100" y="50" width="30" height="60" as="geometry" />
        </mxCell>
        
        <mxCell id="mainwindow-lifeline" value="MainWindow" style="shape=umlLifeline;perimeter=lifelinePerimeter;whiteSpace=wrap;html=1;container=1;collapsible=0;recursiveResize=0;outlineConnect=0;fillColor=#ffe6cc;strokeColor=#d79b00;" vertex="1" parent="1">
          <mxGeometry x="250" y="50" width="100" height="600" as="geometry" />
        </mxCell>
        
        <mxCell id="librarymanager-lifeline" value="LibraryManager" style="shape=umlLifeline;perimeter=lifelinePerimeter;whiteSpace=wrap;html=1;container=1;collapsible=0;recursiveResize=0;outlineConnect=0;fillColor=#e1d5e7;strokeColor=#9673a6;" vertex="1" parent="1">
          <mxGeometry x="450" y="50" width="100" height="600" as="geometry" />
        </mxCell>
        
        <mxCell id="loan-lifeline" value="Loan" style="shape=umlLifeline;perimeter=lifelinePerimeter;whiteSpace=wrap;html=1;container=1;collapsible=0;recursiveResize=0;outlineConnect=0;fillColor=#fff2cc;strokeColor=#d6b656;" vertex="1" parent="1">
          <mxGeometry x="650" y="50" width="100" height="600" as="geometry" />
        </mxCell>
        
        <mxCell id="resource-lifeline" value="Resource" style="shape=umlLifeline;perimeter=lifelinePerimeter;whiteSpace=wrap;html=1;container=1;collapsible=0;recursiveResize=0;outlineConnect=0;fillColor=#d5e8d4;strokeColor=#82b366;" vertex="1" parent="1">
          <mxGeometry x="850" y="50" width="100" height="600" as="geometry" />
        </mxCell>
        
        <mxCell id="persistence-lifeline" value="PersistenceService" style="shape=umlLifeline;perimeter=lifelinePerimeter;whiteSpace=wrap;html=1;container=1;collapsible=0;recursiveResize=0;outlineConnect=0;fillColor=#f8cecc;strokeColor=#b85450;" vertex="1" parent="1">
          <mxGeometry x="1050" y="50" width="100" height="600" as="geometry" />
        </mxCell>
        
        <!-- Messages -->
        <mxCell id="msg1" value="1: Select loan and click &quot;Return&quot;" style="html=1;verticalAlign=bottom;endArrow=block;entryX=0;entryY=0;rounded=0;" edge="1" parent="1" target="mainwindow-lifeline">
          <mxGeometry relative="1" as="geometry">
            <mxPoint x="115" y="150" as="sourcePoint" />
            <mxPoint x="295" y="150" as="targetPoint" />
          </mxGeometry>
        </mxCell>
        
        <mxCell id="msg2" value="2: returnResource(loanId)" style="html=1;verticalAlign=bottom;endArrow=block;entryX=0;entryY=0;rounded=0;" edge="1" parent="1" target="librarymanager-lifeline">
          <mxGeometry relative="1" as="geometry">
            <mxPoint x="300" y="180" as="sourcePoint" />
            <mxPoint x="495" y="180" as="targetPoint" />
          </mxGeometry>
        </mxCell>
        
        <mxCell id="msg3" value="3: findLoanById(loanId)" style="html=1;verticalAlign=bottom;endArrow=block;entryX=0;entryY=0;rounded=0;" edge="1" parent="1">
          <mxGeometry relative="1" as="geometry">
            <mxPoint x="500" y="210" as="sourcePoint" />
            <mxPoint x="500" y="230" as="targetPoint" />
            <Array as="points">
              <mxPoint x="580" y="210" />
              <mxPoint x="580" y="230" />
            </Array>
          </mxGeometry>
        </mxCell>
        
        <mxCell id="msg4" value="4: isReturned()" style="html=1;verticalAlign=bottom;endArrow=block;entryX=0;entryY=0;rounded=0;" edge="1" parent="1" target="loan-lifeline">
          <mxGeometry relative="1" as="geometry">
            <mxPoint x="500" y="250" as="sourcePoint" />
            <mxPoint x="695" y="250" as="targetPoint" />
          </mxGeometry>
        </mxCell>
        
        <mxCell id="msg5" value="5: false (not returned yet)" style="html=1;verticalAlign=bottom;endArrow=open;dashed=1;endFill=0;exitX=0;exitY=0;rounded=0;" edge="1" parent="1" source="loan-lifeline">
          <mxGeometry relative="1" as="geometry">
            <mxPoint x="695" y="280" as="sourcePoint" />
            <mxPoint x="500" y="280" as="targetPoint" />
          </mxGeometry>
        </mxCell>
        
        <mxCell id="msg6" value="6: calculateLateFee()" style="html=1;verticalAlign=bottom;endArrow=block;entryX=0;entryY=0;rounded=0;" edge="1" parent="1" target="loan-lifeline">
          <mxGeometry relative="1" as="geometry">
            <mxPoint x="500" y="310" as="sourcePoint" />
            <mxPoint x="695" y="310" as="targetPoint" />
          </mxGeometry>
        </mxCell>
        
        <mxCell id="msg7" value="7: lateFee amount" style="html=1;verticalAlign=bottom;endArrow=open;dashed=1;endFill=0;exitX=0;exitY=0;rounded=0;" edge="1" parent="1" source="loan-lifeline">
          <mxGeometry relative="1" as="geometry">
            <mxPoint x="695" y="340" as="sourcePoint" />
            <mxPoint x="500" y="340" as="targetPoint" />
          </mxGeometry>
        </mxCell>
        
        <mxCell id="msg8" value="8: setReturnDate(now)" style="html=1;verticalAlign=bottom;endArrow=block;entryX=0;entryY=0;rounded=0;" edge="1" parent="1" target="loan-lifeline">
          <mxGeometry relative="1" as="geometry">
            <mxPoint x="500" y="370" as="sourcePoint" />
            <mxPoint x="695" y="370" as="targetPoint" />
          </mxGeometry>
        </mxCell>
        
        <mxCell id="msg9" value="9: setReturned(true)" style="html=1;verticalAlign=bottom;endArrow=block;entryX=0;entryY=0;rounded=0;" edge="1" parent="1" target="loan-lifeline">
          <mxGeometry relative="1" as="geometry">
            <mxPoint x="500" y="400" as="sourcePoint" />
            <mxPoint x="695" y="400" as="targetPoint" />
          </mxGeometry>
        </mxCell>
        
        <mxCell id="msg10" value="10: getResourceId()" style="html=1;verticalAlign=bottom;endArrow=block;entryX=0;entryY=0;rounded=0;" edge="1" parent="1" target="loan-lifeline">
          <mxGeometry relative="1" as="geometry">
            <mxPoint x="500" y="430" as="sourcePoint" />
            <mxPoint x="695" y="430" as="targetPoint" />
          </mxGeometry>
        </mxCell>
        
        <mxCell id="msg11" value="11: resourceId" style="html=1;verticalAlign=bottom;endArrow=open;dashed=1;endFill=0;exitX=0;exitY=0;rounded=0;" edge="1" parent="1" source="loan-lifeline">
          <mxGeometry relative="1" as="geometry">
            <mxPoint x="695" y="460" as="sourcePoint" />
            <mxPoint x="500" y="460" as="targetPoint" />
          </mxGeometry>
        </mxCell>
        
        <mxCell id="msg12" value="12: setStatus(AVAILABLE)" style="html=1;verticalAlign=bottom;endArrow=block;entryX=0;entryY=0;rounded=0;" edge="1" parent="1" target="resource-lifeline">
          <mxGeometry relative="1" as="geometry">
            <mxPoint x="500" y="490" as="sourcePoint" />
            <mxPoint x="895" y="490" as="targetPoint" />
          </mxGeometry>
        </mxCell>
        
        <mxCell id="msg13" value="13: saveData()" style="html=1;verticalAlign=bottom;endArrow=block;entryX=0;entryY=0;rounded=0;" edge="1" parent="1" target="persistence-lifeline">
          <mxGeometry relative="1" as="geometry">
            <mxPoint x="500" y="520" as="sourcePoint" />
            <mxPoint x="1095" y="520" as="targetPoint" />
          </mxGeometry>
        </mxCell>
        
        <mxCell id="msg14" value="14: return success" style="html=1;verticalAlign=bottom;endArrow=open;dashed=1;endFill=0;exitX=0;exitY=0;rounded=0;" edge="1" parent="1" source="librarymanager-lifeline">
          <mxGeometry relative="1" as="geometry">
            <mxPoint x="495" y="550" as="sourcePoint" />
            <mxPoint x="300" y="550" as="targetPoint" />
          </mxGeometry>
        </mxCell>
        
        <mxCell id="msg15" value="15: updateLoanTable() / showSuccess()" style="html=1;verticalAlign=bottom;endArrow=block;entryX=0;entryY=0;rounded=0;" edge="1" parent="1">
          <mxGeometry relative="1" as="geometry">
            <mxPoint x="300" y="580" as="sourcePoint" />
            <mxPoint x="300" y="600" as="targetPoint" />
            <Array as="points">
              <mxPoint x="380" y="580" />
              <mxPoint x="380" y="600" />
            </Array>
          </mxGeometry>
        </mxCell>
        
        <!-- Activation boxes -->
        <mxCell id="activation1" value="" style="html=1;points=[];perimeter=orthogonalPerimeter;outlineConnect=0;targetShapes=umlLifeline;portConstraint=eastwest;newEdgeStyle={&quot;edgeStyle&quot;:&quot;elbowEdgeStyle&quot;,&quot;elbow&quot;:&quot;vertical&quot;,&quot;curved&quot;:0,&quot;rounded&quot;:0};fillColor=#ffe6cc;strokeColor=#d79b00;" vertex="1" parent="mainwindow-lifeline">
          <mxGeometry x="45" y="100" width="10" height="520" as="geometry" />
        </mxCell>
        
        <mxCell id="activation2" value="" style="html=1;points=[];perimeter=orthogonalPerimeter;outlineConnect=0;targetShapes=umlLifeline;portConstraint=eastwest;newEdgeStyle={&quot;edgeStyle&quot;:&quot;elbowEdgeStyle&quot;,&quot;elbow&quot;:&quot;vertical&quot;,&quot;curved&quot;:0,&quot;rounded&quot;:0};fillColor=#e1d5e7;strokeColor=#9673a6;" vertex="1" parent="librarymanager-lifeline">
          <mxGeometry x="45" y="130" width="10" height="420" as="geometry" />
        </mxCell>
        
        <mxCell id="activation3" value="" style="html=1;points=[];perimeter=orthogonalPerimeter;outlineConnect=0;targetShapes=umlLifeline;portConstraint=eastwest;newEdgeStyle={&quot;edgeStyle&quot;:&quot;elbowEdgeStyle&quot;,&quot;elbow&quot;:&quot;vertical&quot;,&quot;curved&quot;:0,&quot;rounded&quot;:0};fillColor=#fff2cc;strokeColor=#d6b656;" vertex="1" parent="loan-lifeline">
          <mxGeometry x="45" y="200" width="10" height="280" as="geometry" />
        </mxCell>
        
        <mxCell id="activation4" value="" style="html=1;points=[];perimeter=orthogonalPerimeter;outlineConnect=0;targetShapes=umlLifeline;portConstraint=eastwest;newEdgeStyle={&quot;edgeStyle&quot;:&quot;elbowEdgeStyle&quot;,&quot;elbow&quot;:&quot;vertical&quot;,&quot;curved&quot;:0,&quot;rounded&quot;:0};fillColor=#d5e8d4;strokeColor=#82b366;" vertex="1" parent="resource-lifeline">
          <mxGeometry x="45" y="440" width="10" height="50" as="geometry" />
        </mxCell>
        
        <mxCell id="activation5" value="" style="html=1;points=[];perimeter=orthogonalPerimeter;outlineConnect=0;targetShapes=umlLifeline;portConstraint=eastwest;newEdgeStyle={&quot;edgeStyle&quot;:&quot;elbowEdgeStyle&quot;,&quot;elbow&quot;:&quot;vertical&quot;,&quot;curved&quot;:0,&quot;rounded&quot;:0};fillColor=#f8cecc;strokeColor=#b85450;" vertex="1" parent="persistence-lifeline">
          <mxGeometry x="45" y="470" width="10" height="30" as="geometry" />
        </mxCell>
        
        <!-- Title -->
        <mxCell id="title" value="Sequence Diagram: Return Resource Workflow" style="text;html=1;strokeColor=none;fillColor=none;align=center;verticalAlign=middle;whiteSpace=wrap;rounded=0;fontSize=16;fontStyle=1;" vertex="1" parent="1">
          <mxGeometry x="400" y="10" width="400" height="30" as="geometry" />
        </mxCell>
        
        <!-- Notes -->
        <mxCell id="note1" value="Note: This sequence handles resource return&#xa;including late fee calculation and status updates.&#xa;The system automatically makes the resource&#xa;available for other users." style="shape=note;whiteSpace=wrap;html=1;backgroundOutline=1;darkOpacity=0.05;fillColor=#fff2cc;strokeColor=#d6b656;" vertex="1" parent="1">
          <mxGeometry x="1200" y="150" width="250" height="100" as="geometry" />
        </mxCell>
        
      </root>
    </mxGraphModel>
  </diagram>
</mxfile>
